<svg data-v-fde0c5aa="" xmlns="http://www.w3.org/2000/svg" viewBox="0 0 300 300" class="iconLeft"><!----><defs data-v-fde0c5aa=""><linearGradient data-v-fde0c5aa="" gradientTransform="rotate(25)" id="53e14d95-cf29-4a3a-8a04-8d8ec4497b47" x1="0%" y1="0%" x2="100%" y2="0%"><stop data-v-fde0c5aa="" offset="0%" stop-color="#276D8E" stop-opacity="1"></stop><stop data-v-fde0c5aa="" offset="100%" stop-color="#DDDFD4" stop-opacity="1"></stop></linearGradient></defs><rect data-v-fde0c5aa="" fill="url(#53e14d95-cf29-4a3a-8a04-8d8ec4497b47)" x="0" y="0" width="300px" height="300px" class="logo-background-square"></rect><defs data-v-fde0c5aa=""><!----></defs><g data-v-fde0c5aa="" id="7b434355-e0aa-4df1-b6e5-9c1b63fd178c" fill="#ffffff" transform="matrix(8.209610409853935,0,0,8.209610409853935,136.14434104722852,87.86009254893285)"><path d="M2.98 9.08L2.98 9.08L2.98 9.08Q2.86 9.23 2.76 9.34L2.76 9.34L2.76 9.34Q2.65 9.45 2.54 9.53L2.54 9.53L2.54 9.53Q2.42 9.60 2.28 9.66L2.28 9.66L2.28 9.66Q2.14 9.71 1.96 9.73L1.96 9.73L1.96 9.73Q1.87 9.74 1.78 9.74L1.78 9.74L1.78 9.74Q1.68 9.75 1.57 9.73L1.57 9.73L1.57 9.73Q1.42 9.72 1.28 9.72L1.28 9.72L1.28 9.72Q1.13 9.72 0.98 9.69L0.98 9.69L0.98 9.69Q0.66 9.61 0.44 9.46L0.44 9.46L0.44 9.46Q0.22 9.31 0.10 9.07L0.10 9.07L0.10 9.07Q-0.05 8.74 0.27 8.73L0.27 8.73L0.27 8.73Q0.33 8.73 0.40 8.81L0.40 8.81L0.40 8.81Q0.47 8.89 0.51 8.93L0.51 8.93L0.51 8.93Q0.66 9.07 0.68 9.08L0.68 9.08L0.68 9.08L0.68 9.09L0.68 9.09Q1.02 9.32 1.57 9.32L1.57 9.32L1.58 9.32L1.59 9.32L1.59 9.32Q1.82 9.32 2.18 9.23L2.18 9.23L2.18 9.23Q2.54 9.14 2.65 8.87L2.65 8.87L2.65 8.87Q2.71 8.70 2.65 8.51L2.65 8.51L2.65 8.50L2.65 8.50Q2.48 8.14 1.99 8.02L1.99 8.02L1.15 7.80L1.15 7.80Q0.97 7.76 0.72 7.63L0.72 7.63L0.72 7.63Q0.59 7.56 0.49 7.51L0.49 7.51L0.49 7.51Q0.40 7.45 0.33 7.40L0.33 7.40L0.33 7.40Q0.05 7.19 0.01 6.99L0.01 6.99L0.01 6.99Q0 6.95 0 6.89L0 6.89L0 6.89Q0 6.83 0 6.74L0 6.74L0 6.74Q0 6.64 0.01 6.55L0.01 6.55L0.01 6.55Q0.03 6.46 0.04 6.36L0.04 6.36L0.04 6.36Q0.08 6.04 0.31 5.80L0.31 5.80L0.31 5.80Q0.41 5.69 0.56 5.62L0.56 5.62L0.56 5.62Q0.70 5.55 0.84 5.49L0.84 5.49L0.84 5.49Q1.03 5.40 1.24 5.40L1.24 5.40L1.24 5.40Q1.45 5.39 1.65 5.40L1.65 5.40L1.65 5.40Q2.32 5.42 2.70 5.87L2.70 5.87L2.70 5.87Q2.87 6.08 2.83 6.22L2.83 6.22L2.78 6.26L2.78 6.26Q2.67 6.32 2.52 6.19L2.52 6.19L2.52 6.19Q2.48 6.16 2.45 6.13L2.45 6.13L2.45 6.13Q2.41 6.09 2.38 6.06L2.38 6.06L2.38 6.06Q2.34 6.02 2.29 5.98L2.29 5.98L2.29 5.98Q2.24 5.95 2.17 5.91L2.17 5.91L2.15 5.90L2.13 5.90L2.13 5.90Q1.88 5.82 1.62 5.81L1.62 5.81L1.62 5.81Q1.35 5.80 1.07 5.86L1.07 5.86L1.07 5.86Q0.74 5.93 0.56 6.14L0.56 6.14L0.56 6.14Q0.38 6.34 0.38 6.67L0.38 6.67L0.38 6.69L0.39 6.70L0.39 6.70Q0.42 7.12 1.05 7.30L1.05 7.30L1.24 7.36L1.75 7.53L1.75 7.53Q1.87 7.57 1.98 7.62L1.98 7.62L1.98 7.62Q2.10 7.67 2.23 7.72L2.23 7.72L2.23 7.72Q2.42 7.81 2.58 7.90L2.58 7.90L2.58 7.90Q2.75 7.98 2.88 8.07L2.88 8.07L2.88 8.07Q2.98 8.13 3.03 8.22L3.03 8.22L3.03 8.22Q3.08 8.31 3.10 8.41L3.10 8.41L3.10 8.41Q3.12 8.51 3.11 8.62L3.11 8.62L3.11 8.62Q3.11 8.73 3.09 8.82L3.09 8.82L3.09 8.82Q3.08 8.89 3.05 8.96L3.05 8.96L3.05 8.96Q3.01 9.03 2.98 9.08ZM5.01 9.70L5.01 9.70L5.01 9.70Q4.79 9.67 4.79 9.44L4.79 9.44L4.79 9.44Q4.79 9.07 4.79 8.72L4.79 8.72L4.79 8.72Q4.79 8.36 4.79 7.99L4.79 7.99L4.79 7.99Q4.79 7.79 4.81 7.58L4.81 7.58L4.81 7.58Q4.82 7.43 4.82 7.30L4.82 7.30L4.82 7.30Q4.82 7.17 4.81 7.06L4.81 7.06L4.81 7.06Q4.81 6.99 4.80 6.90L4.80 6.90L4.80 6.90Q4.79 6.80 4.79 6.67L4.79 6.67L4.79 6.67Q4.79 6.60 4.79 6.51L4.79 6.51L4.79 6.51Q4.79 6.41 4.80 6.28L4.80 6.28L4.80 6.28Q4.81 6.19 4.81 6.11L4.81 6.11L4.81 6.11Q4.81 6.04 4.81 5.99L4.81 5.99L4.81 5.84L4.81 5.83L4.81 5.78L4.81 5.78Q4.79 5.61 4.82 5.54L4.82 5.54L4.82 5.54Q4.84 5.49 4.91 5.44L4.91 5.44L4.91 5.44Q5.17 5.30 5.24 5.61L5.24 5.61L5.24 5.61Q5.29 5.84 5.30 6.07L5.30 6.07L5.30 6.07Q5.31 6.29 5.29 6.51L5.29 6.51L5.29 6.51L5.29 6.51Q5.27 6.73 5.28 6.94L5.28 6.94L5.28 6.94Q5.29 7.15 5.27 7.36L5.27 7.36L5.27 7.36Q5.25 7.55 5.24 7.68L5.24 7.68L5.24 7.68Q5.22 7.82 5.22 7.92L5.22 7.92L5.22 7.92Q5.20 8.05 5.20 8.20L5.20 8.20L5.20 8.20Q5.20 8.35 5.21 8.51L5.21 8.51L5.21 8.51Q5.22 8.54 5.22 8.59L5.22 8.59L5.22 8.59Q5.22 8.63 5.22 8.70L5.22 8.70L5.22 8.70Q5.22 8.80 5.22 8.91L5.22 8.91L5.22 8.91Q5.22 9.02 5.22 9.13L5.22 9.13L5.22 9.13Q5.22 9.20 5.23 9.27L5.23 9.27L5.23 9.27Q5.23 9.33 5.22 9.40L5.22 9.40L5.22 9.40Q5.22 9.54 5.22 9.55L5.22 9.55L5.22 9.55Q5.19 9.68 5.01 9.70ZM10.21 5.56L10.21 5.56L10.21 5.56Q10.31 5.83 9.99 5.85L9.99 5.85L9.99 5.85Q9.58 5.88 9.17 5.86L9.17 5.86L9.17 5.86Q8.75 5.84 8.34 5.87L8.34 5.87L8.34 5.87Q8.18 5.89 7.96 5.85L7.96 5.85L7.96 5.85Q7.74 5.82 7.63 5.94L7.63 5.94L7.63 5.94Q7.54 6.03 7.55 6.17L7.55 6.17L7.55 6.17Q7.56 6.17 7.56 6.21L7.56 6.21L7.56 6.21Q7.56 6.24 7.56 6.33L7.56 6.33L7.56 6.33Q7.55 6.42 7.55 6.57L7.55 6.57L7.55 6.57Q7.53 6.83 7.63 6.94L7.63 6.94L7.63 6.94Q7.73 7.06 7.91 7.06L7.91 7.06L7.91 7.06Q8.02 7.07 8.17 7.07L8.17 7.07L8.17 7.07Q8.33 7.08 8.53 7.09L8.53 7.09L8.53 7.09Q8.56 7.10 8.64 7.09L8.64 7.09L8.64 7.09Q8.72 7.08 8.86 7.08L8.86 7.08L8.86 7.08Q8.93 7.07 9.06 7.06L9.06 7.06L9.06 7.06Q9.19 7.05 9.26 7.10L9.26 7.10L9.26 7.10Q9.33 7.15 9.33 7.27L9.33 7.27L9.33 7.27Q9.34 7.36 9.30 7.40L9.30 7.40L9.30 7.40Q9.24 7.47 9.04 7.47L9.04 7.47L9.04 7.47Q8.95 7.47 8.86 7.46L8.86 7.46L8.86 7.46Q8.76 7.46 8.67 7.45L8.67 7.45L8.67 7.45Q8.46 7.44 8.25 7.45L8.25 7.45L8.25 7.45Q8.16 7.46 8.06 7.47L8.06 7.47L8.06 7.47Q7.96 7.47 7.88 7.47L7.88 7.47L7.88 7.47Q7.66 7.47 7.59 7.55L7.59 7.55L7.59 7.55Q7.54 7.62 7.54 7.85L7.54 7.85L7.54 7.85Q7.54 8.16 7.55 8.46L7.55 8.46L7.55 8.46Q7.56 8.76 7.57 9.05L7.57 9.05L7.57 9.05Q7.58 9.11 7.58 9.18L7.58 9.18L7.58 9.18Q7.57 9.26 7.57 9.37L7.57 9.37L7.57 9.37Q7.55 9.57 7.48 9.64L7.48 9.64L7.48 9.64Q7.42 9.70 7.35 9.70L7.35 9.70L7.35 9.70Q7.29 9.71 7.24 9.68L7.24 9.68L7.24 9.68Q7.18 9.65 7.15 9.58L7.15 9.58L7.15 9.58Q7.12 9.52 7.11 9.45L7.11 9.45L7.11 9.45Q7.10 9.35 7.10 9.23L7.10 9.23L7.10 9.23Q7.10 9.11 7.12 8.96L7.12 8.96L7.12 8.96Q7.12 8.85 7.13 8.74L7.13 8.74L7.13 8.74Q7.13 8.62 7.13 8.50L7.13 8.50L7.13 8.50Q7.14 8.37 7.14 8.26L7.14 8.26L7.14 8.26Q7.14 8.16 7.16 8.08L7.16 8.08L7.16 8.08Q7.17 7.90 7.15 7.72L7.15 7.72L7.15 7.72Q7.13 7.53 7.13 7.35L7.13 7.35L7.13 6.59L7.13 6.59Q7.13 6.38 7.12 6.17L7.12 6.17L7.12 6.17Q7.11 5.95 7.11 5.74L7.11 5.74L7.11 5.71L7.11 5.71Q7.15 5.54 7.31 5.46L7.31 5.46L7.31 5.46Q7.41 5.41 7.62 5.41L7.62 5.41L7.62 5.41Q7.72 5.41 7.83 5.42L7.83 5.42L7.83 5.42Q7.94 5.42 8.06 5.42L8.06 5.42L8.06 5.42Q8.51 5.42 8.96 5.41L8.96 5.41L8.96 5.41Q9.40 5.40 9.85 5.41L9.85 5.41L9.85 5.41Q9.92 5.42 9.98 5.42L9.98 5.42L9.98 5.42Q10.04 5.43 10.10 5.44L10.10 5.44L10.10 5.44Q10.17 5.48 10.21 5.56ZM15.05 5.75L15.05 5.75L15.05 5.75Q14.96 5.86 14.74 5.84L14.74 5.84L14.40 5.82L14.40 5.82Q14.29 5.82 14.20 5.81L14.20 5.81L14.20 5.81Q14.10 5.80 14 5.80L14 5.80L14 5.80Q13.79 5.80 13.70 5.89L13.70 5.89L13.70 5.89Q13.62 5.98 13.62 6.19L13.62 6.19L13.62 6.19Q13.62 6.28 13.63 6.37L13.63 6.37L13.63 6.37Q13.64 6.47 13.64 6.56L13.64 6.56L13.64 6.56Q13.65 6.79 13.65 6.96L13.65 6.96L13.65 6.96Q13.66 7.12 13.66 7.24L13.66 7.24L13.66 7.24Q13.66 7.59 13.62 7.94L13.62 7.94L13.62 7.94Q13.60 8.10 13.62 8.26L13.62 8.26L13.62 8.26Q13.64 8.43 13.64 8.59L13.64 8.59L13.64 8.59Q13.65 8.76 13.65 8.89L13.65 8.89L13.65 8.89Q13.66 9.02 13.66 9.11L13.66 9.11L13.66 9.11Q13.66 9.15 13.66 9.20L13.66 9.20L13.66 9.20Q13.66 9.26 13.65 9.35L13.65 9.35L13.65 9.35Q13.64 9.54 13.62 9.58L13.62 9.58L13.62 9.58Q13.54 9.73 13.39 9.69L13.39 9.69L13.39 9.69Q13.21 9.65 13.21 9.43L13.21 9.43L13.21 9.43Q13.21 9.22 13.22 9.01L13.22 9.01L13.22 9.01Q13.24 8.80 13.25 8.60L13.25 8.60L13.25 8.60Q13.28 8.36 13.25 8.11L13.25 8.11L13.25 8.11Q13.23 7.87 13.23 7.62L13.23 7.62L13.23 7.62Q13.23 7.40 13.24 7.17L13.24 7.17L13.24 7.17Q13.26 6.94 13.27 6.71L13.27 6.71L13.27 6.71Q13.27 6.27 13.13 6.08L13.13 6.08L13.13 6.08Q13.05 5.99 12.94 5.94L12.94 5.94L12.94 5.94Q12.84 5.89 12.71 5.87L12.71 5.87L12.71 5.87Q12.58 5.86 12.47 5.85L12.47 5.85L12.47 5.85Q12.35 5.84 12.24 5.84L12.24 5.84L12.24 5.84Q12.16 5.84 12.03 5.84L12.03 5.84L12.03 5.84Q11.91 5.84 11.84 5.80L11.84 5.80L11.84 5.80Q11.79 5.77 11.77 5.67L11.77 5.67L11.77 5.67Q11.76 5.59 11.79 5.54L11.79 5.54L11.79 5.54Q11.84 5.46 12.03 5.43L12.03 5.43L12.03 5.43Q12.05 5.43 12.11 5.43L12.11 5.43L12.11 5.43Q12.39 5.42 12.66 5.45L12.66 5.45L12.66 5.45Q12.93 5.48 13.22 5.46L13.22 5.46L13.22 5.46Q13.34 5.46 13.45 5.44L13.45 5.44L13.45 5.44Q13.56 5.43 13.69 5.43L13.69 5.43L13.69 5.43Q13.91 5.43 14.14 5.43L14.14 5.43L14.14 5.43Q14.37 5.43 14.59 5.42L14.59 5.42L14.59 5.42Q14.71 5.42 14.80 5.43L14.80 5.43L14.80 5.43Q14.88 5.43 14.94 5.46L14.94 5.46L14.94 5.46Q15.16 5.61 15.05 5.75Z"></path></g><defs data-v-fde0c5aa=""><!----></defs><g data-v-fde0c5aa="" id="b14b9fe0-1fa1-407a-8189-ceb764fc2783" stroke="none" fill="#ffffff" transform="matrix(1.0129424271500125,0,0,1.0129424271500125,30.92505109814799,99.3523743815331)"><path d="M49.999 76.432c-5.56 0-10.634-2.548-13.928-6.831a17.503 17.503 0 0 1-9.484 2.767c-9.72 0-17.628-7.908-17.628-17.628 0-7.623 4.935-14.329 12.009-16.708 1.496-8.268 8.719-14.463 17.322-14.463 4.393 0 8.509 1.594 11.708 4.46 3.198-2.866 7.312-4.46 11.703-4.46 8.607 0 15.832 6.195 17.326 14.463 7.077 2.379 12.014 9.085 12.014 16.708 0 9.72-7.907 17.628-17.627 17.628-3.411 0-6.68-.966-9.488-2.767-3.293 4.283-8.367 6.831-13.927 6.831zM37.716 60.091l1.824 3.765c1.965 4.057 5.973 6.576 10.458 6.576s8.492-2.52 10.457-6.575l1.824-3.766 2.981 2.936a11.55 11.55 0 0 0 8.152 3.341c6.411 0 11.627-5.216 11.627-11.628 0-5.523-3.928-10.316-9.34-11.398l-2.283-.456-.125-2.325c-.331-6.164-5.423-10.992-11.592-10.992-3.682 0-7.071 1.707-9.302 4.682L50 37.453l-2.401-3.202c-2.231-2.976-5.624-4.683-9.309-4.683-6.165 0-11.255 4.829-11.588 10.993l-.126 2.323-2.281.457c-5.409 1.082-9.335 5.875-9.335 11.398 0 6.412 5.216 11.628 11.628 11.628a11.55 11.55 0 0 0 8.149-3.341l2.979-2.935z"></path></g><!----></svg>